<?xml version="1.0" encoding="utf-8"?>
<!-- Generator: Adobe Illustrator 16.0.4, SVG Export Plug-In . SVG Version: 6.00 Build 0)  -->
<!DOCTYPE svg PUBLIC "-//W3C//DTD SVG 1.0//EN" "http://www.w3.org/TR/2001/REC-SVG-20010904/DTD/svg10.dtd">
<svg version="1.0" id="Layer_1" xmlns="http://www.w3.org/2000/svg" xmlns:xlink="http://www.w3.org/1999/xlink" x="0px" y="0px"
	 width="40px" height="32px" viewBox="0 0 40 32" enable-background="new 0 0 40 32" xml:space="preserve">
<path fill-rule="evenodd" clip-rule="evenodd" fill="#333333" d="M37.811,0C36.561,0.75,35,1.721,33.12,2.91
	c-1.87,1.18-3.62,2.619-5.28,4.311c-1.619,1.649-3.029,3.529-4.15,5.649C22.561,15,22,17.311,22,19.87c0,3.63,0.689,6.569,2.13,8.79
	c1.399,2.25,3.78,3.34,7.091,3.34c2.09,0,3.75-0.721,4.969-2.16c1.181-1.43,1.811-3,1.811-4.68c0-2.35-0.66-4.131-1.971-5.35
	C34.721,18.63,32.91,18,30.66,18H28c0.25-2.029,0.66-3.689,1.25-4.971c0.561-1.25,1.439-2.5,2.59-3.75c1.189-1.25,2.381-2.25,3.57-3
	c1.15-0.75,2.68-1.689,4.59-2.75L37.811,0z M15.811,0C14.561,0.75,13,1.721,11.12,2.91C9.25,4.09,7.5,5.529,5.84,7.221
	C4.221,8.87,2.811,10.75,1.689,12.87C0.561,15,0,17.311,0,19.87c0,3.63,0.689,6.569,2.13,8.79C3.529,30.91,5.91,32,9.221,32
	c2.09,0,3.75-0.721,4.969-2.16c1.181-1.43,1.811-3,1.811-4.68c0-2.35-0.66-4.131-1.971-5.35C12.721,18.63,10.91,18,8.66,18H6
	c0.25-2.029,0.66-3.689,1.25-5c0.59-1.279,1.471-2.529,2.59-3.721c1.189-1.25,2.381-2.25,3.57-3c1.15-0.75,2.68-1.689,4.59-2.75
	L15.811,0z"/>
</svg>
