<?xml version="1.0" encoding="UTF-8"?>
<!DOCTYPE svg PUBLIC "-//W3C//DTD SVG 1.1//EN" "http://www.w3.org/Graphics/SVG/1.1/DTD/svg11.dtd">
<!-- Creator: CorelDRAW X8 -->
<svg xmlns="http://www.w3.org/2000/svg" xml:space="preserve" width="221px" height="53px" version="1.1" style="shape-rendering:geometricPrecision; text-rendering:geometricPrecision; image-rendering:optimizeQuality; fill-rule:evenodd; clip-rule:evenodd"
viewBox="0 0 1127 270"
 xmlns:xlink="http://www.w3.org/1999/xlink">
 <defs>
  <style type="text/css">
   <![CDATA[
    .fil1 {fill:#FEFEFE}
    .fil0 {fill:#01356E}
    .fil2 {fill:#FEFEFE;fill-rule:nonzero}
   ]]>
  </style>
 </defs>
 <g id="Слой_x0020_1">
  <metadata id="CorelCorpID_0Corel-Layer"/>
  <g id="_1428698800">
   <rect class="fil0" width="246" height="270" rx="13" ry="14"/>
   <path class="fil1" d="M79 121l38 23 0 7 -38 -22 0 -8zm88 0l-38 23 0 7 38 -22 0 -8zm-81 -55l37 -22 37 22 0 44 -37 22 -37 -21 0 -45zm-12 -7l49 -30 49 30 0 44 7 -4 0 38 -50 29 0 9 -12 0 0 -10 -51 -29 0 -37 8 4 0 -44z"/>
   <path class="fil2" d="M79 240c0,-1 -1,-3 -2,-4 -1,-2 -2,-3 -4,-4 -1,-2 -2,-3 -3,-5 -2,-1 -3,-2 -4,-3l0 16 -9 0 0 -39 9 0 0 15c2,-3 4,-5 6,-8 3,-2 5,-5 6,-7l11 0c-3,3 -6,6 -8,9 -3,3 -5,6 -8,9 3,3 6,6 8,9 3,4 6,8 8,12l-10 0zm29 1c-6,0 -10,-2 -14,-5 -3,-4 -4,-9 -4,-15 0,-4 0,-6 1,-9 1,-3 2,-5 4,-6 2,-2 4,-3 6,-4 3,-1 5,-2 8,-2 1,0 3,0 4,1 1,0 3,0 4,0 1,1 1,1 2,1 1,1 1,1 1,1l-2 7c-1,0 -2,-1 -4,-1 -2,-1 -3,-1 -5,-1 -2,0 -3,0 -4,1 -1,0 -2,1 -3,2 -1,1 -2,2 -3,4 0,1 -1,3 -1,5 0,2 1,4 1,5 0,2 1,3 2,4 1,2 2,2 3,3 2,1 3,1 5,1 1,0 3,0 3,0 1,0 2,0 3,-1 1,0 2,0 2,0 1,-1 1,-1 2,-1l2 7c-1,1 -3,1 -5,2 -2,1 -5,1 -8,1zm34 0c-6,0 -11,-2 -14,-5 -3,-4 -5,-9 -5,-15 0,-4 1,-6 2,-9 1,-3 2,-5 4,-6 2,-2 4,-3 6,-4 2,-1 5,-2 8,-2 1,0 3,0 4,1 1,0 2,0 3,0 1,1 2,1 3,1 0,1 1,1 1,1l-2 7c-1,0 -3,-1 -4,-1 -2,-1 -4,-1 -5,-1 -2,0 -3,0 -4,1 -2,0 -3,1 -4,2 -1,1 -1,2 -2,4 -1,1 -1,3 -1,5 0,2 0,4 1,5 0,2 1,3 2,4 0,2 2,2 3,3 1,1 3,1 5,1 1,0 2,0 3,0 1,0 2,0 3,-1 1,0 1,0 2,0 0,-1 1,-1 1,-1l3 7c-1,1 -3,1 -5,2 -2,1 -5,1 -8,1zm34 0c-6,0 -11,-2 -14,-5 -3,-4 -5,-9 -5,-15 0,-4 1,-6 2,-9 1,-3 2,-5 4,-6 1,-2 3,-3 6,-4 2,-1 5,-2 7,-2 2,0 3,0 5,1 1,0 2,0 3,0 1,1 2,1 3,1 0,1 1,1 1,1l-2 7c-2,0 -3,-1 -5,-1 -1,-1 -3,-1 -5,-1 -1,0 -2,0 -4,1 -1,0 -2,1 -3,2 -1,1 -2,2 -2,4 -1,1 -1,3 -1,5 0,2 0,4 1,5 0,2 1,3 1,4 1,2 2,2 4,3 1,1 3,1 5,1 1,0 2,0 3,0 1,0 2,0 3,-1 0,0 1,0 2,0 0,-1 1,-1 1,-1l3 7c-2,1 -3,1 -6,2 -2,1 -4,1 -7,1z"/>
   <path class="fil0" d="M368 201l-6 26 -13 0 8 -35 -8 -31 16 0 5 26 0 0 5 -26 14 0 -9 33 9 33 -16 0 -5 -26 0 0zm38 26l-14 0 0 -53 14 0 0 25 7 -13 0 -12 14 0 0 53 -14 0 0 -27 -7 13 0 14zm37 -45l0 45 -11 0 0 -53 21 0 6 38 0 0 6 -38 20 0 0 53 -13 0 0 -45 0 0 -8 45 -12 0 -8 -45 -1 0zm61 45l-14 0 0 -53 14 0 0 25 8 -13 0 -12 13 0 0 53 -13 0 0 -27 -8 13 0 14zm48 -53l14 0 0 53 -14 0 0 -22c-3,1 -6,2 -9,2 -1,0 -2,0 -3,0 -4,-2 -6,-4 -7,-6 -1,-3 -2,-7 -2,-12l0 -15 14 0c0,0 0,6 0,17 0,5 1,7 4,7 1,0 2,0 3,0l0 -24zm55 28l-20 0 0 11c0,3 1,5 3,5 1,0 1,-1 2,-1 0,-1 1,-2 1,-4l0 -5 14 0 0 6c0,5 -2,8 -5,10 -3,3 -7,4 -12,4 -4,0 -6,-1 -9,-2 -3,-1 -5,-2 -6,-5 -2,-2 -2,-4 -2,-7l0 -26c0,-4 1,-8 4,-11 3,-2 7,-4 13,-4 3,0 6,1 8,2 3,1 5,2 6,5 2,2 3,5 3,8l0 14zm-20 -9l6 0 0 -7c0,-2 -1,-3 -3,-3 -2,0 -3,1 -3,3l0 7zm45 1l0 -7c0,-3 -1,-4 -3,-4 -2,0 -3,1 -3,4l0 27c0,3 1,4 3,4 2,0 3,-1 3,-4l0 -8 14 0 0 8c0,5 -1,8 -4,10 -3,3 -7,4 -13,4 -11,0 -17,-5 -17,-15l0 -25c0,-3 1,-5 2,-7 2,-3 4,-4 6,-6 3,-1 6,-2 9,-2 4,0 6,1 9,2 3,1 5,2 6,5 2,2 2,5 2,8l0 6 -14 0zm33 33l-14 0 0 -53 14 0 0 24 0 0 9 -24 13 0 -9 24 9 29 -13 0 -9 -27 0 0 0 27zm46 0l0 -6 0 0c-1,2 -3,4 -4,5 -2,1 -4,2 -6,2 -4,0 -6,-1 -8,-3 -1,-2 -2,-5 -2,-8l0 -8c0,-3 1,-6 2,-7 2,-2 5,-4 8,-6 3,-1 6,-3 7,-4 2,-1 3,-3 3,-5 0,-3 -1,-4 -3,-4 -2,0 -3,1 -3,4l0 5 -14 0 0 -4c0,-5 1,-9 5,-11 3,-2 7,-4 12,-4 5,0 9,2 12,4 3,2 5,6 5,11l0 39 -14 0zm-6 -19l0 5c0,1 0,2 1,2 0,1 1,1 1,1 2,0 3,0 3,-1 0,-1 1,-3 1,-6l0 -9c-1,1 -2,2 -3,2 -1,1 -2,2 -2,3 -1,0 -1,1 -1,3zm47 19l0 -24 -2 0c-2,0 -3,1 -4,2 -1,0 -1,2 -1,4l0 11c0,3 -1,5 -3,7l-14 0c2,-2 3,-4 3,-7l0 -11c0,-4 0,-6 2,-8 2,-1 5,-2 8,-2l0 0c-7,-1 -10,-5 -10,-12 0,-4 0,-7 2,-8 2,-2 4,-3 7,-4 3,0 7,-1 12,-1l14 0 0 53 -14 0zm0 -45c-2,0 -4,0 -5,1 -1,0 -2,1 -2,2 0,1 0,2 0,4 0,1 0,3 0,4 0,1 1,1 2,2 1,0 3,0 5,0l0 -13zm55 45l-15 0 0 -66 15 0 0 30 0 0 10 -30 14 0 -10 29 10 37 -15 0 -9 -33 0 0 0 33zm62 -39l0 26c0,3 -1,5 -2,7 -2,3 -4,4 -7,5 -2,1 -5,2 -8,2 -3,0 -6,-1 -9,-2 -2,-1 -4,-2 -6,-5 -1,-2 -2,-4 -2,-7l0 -26c0,-4 1,-8 4,-11 3,-2 7,-4 13,-4 5,0 10,2 13,4 2,3 4,7 4,11zm-20 -1l0 27c0,3 1,4 3,4 2,0 3,-1 3,-4l0 -27c0,-3 -1,-4 -3,-4 -2,0 -3,1 -3,4zm36 -5l0 45 -11 0 0 -53 20 0 6 38 0 0 6 -38 20 0 0 53 -12 0 0 -45 0 0 -8 45 -13 0 -8 -45 0 0zm82 -8l0 53 -14 0 0 -44 -7 0 0 44 -14 0 0 -53 35 0zm25 53l0 -6 -1 0c0,2 -2,4 -3,5 -2,1 -4,2 -6,2 -4,0 -6,-1 -8,-3 -1,-2 -2,-5 -2,-8l0 -8c0,-3 1,-6 2,-7 2,-2 5,-4 8,-6 3,-1 6,-3 7,-4 2,-1 3,-3 3,-5 0,-3 -1,-4 -3,-4 -2,0 -3,1 -3,4l0 5 -14 0 0 -4c0,-5 1,-9 5,-11 3,-2 7,-4 12,-4 5,0 9,2 12,4 3,2 5,6 5,11l0 39 -14 0zm-6 -19l0 5c0,1 0,2 1,2 0,1 1,1 1,1 2,0 3,0 3,-1 0,-1 1,-3 1,-6l0 -9c-1,1 -2,2 -3,2 -1,1 -2,2 -2,3 -1,0 -1,1 -1,3zm39 19l-13 0 0 -53 13 0 0 20 8 0 0 -20 14 0 0 53 -14 0 0 -25 -8 0 0 25zm40 0l-14 0 0 -53 14 0 0 25 7 -13 0 -12 14 0 0 53 -14 0 0 -27 -7 13 0 14zm48 0l0 -24 -2 0c-1,0 -3,1 -4,2 -1,0 -1,2 -1,4l0 11c0,3 -1,5 -2,7l-14 0c1,-2 2,-4 2,-7l0 -11c0,-4 1,-6 3,-8 1,-1 4,-2 8,-2l0 0c-8,-1 -11,-5 -11,-12 0,-4 1,-7 2,-8 2,-2 4,-3 7,-4 3,0 7,-1 12,-1l14 0 0 53 -14 0zm0 -45c-2,0 -4,0 -5,1 -1,0 -1,1 -2,2 0,1 0,2 0,4 0,1 0,3 0,4 1,1 1,1 2,2 2,0 3,0 5,0l0 -13zm-745 -49l-19 0 0 -88 19 0 0 40 0 0 13 -40 18 0 -13 39 14 49 -20 0 -12 -45 0 0 0 45zm55 0l-18 0 0 -70 18 0 0 32 10 -17 0 -15 18 0 0 70 -18 0 0 -36 -10 17 0 19zm54 -70l0 9 1 0c1,-7 5,-10 13,-10 4,0 8,1 10,5 2,3 3,7 3,13l0 38c0,5 -1,9 -3,11 -2,3 -6,4 -10,4 -4,0 -6,0 -9,-2 -2,-2 -4,-4 -4,-8l-1 0 0 25 -18 0 0 -85 18 0zm0 19l0 31c0,1 1,2 1,3 1,1 2,2 3,2 1,0 2,-1 3,-2 1,-1 1,-2 1,-3l0 -31c0,-1 0,-2 -1,-3 -1,-1 -2,-1 -3,-1 -1,0 -2,0 -3,1 0,1 -1,2 -1,3zm78 -1l0 34c0,4 -1,7 -3,10 -2,3 -4,5 -8,6 -3,2 -7,2 -11,2 -4,0 -8,0 -12,-2 -3,-1 -6,-3 -8,-6 -2,-3 -3,-6 -3,-10l0 -34c0,-6 2,-11 6,-14 4,-4 9,-5 17,-5 7,0 13,1 17,5 3,3 5,8 5,14zm-26 -2l0 37c0,3 1,5 4,5 2,0 4,-2 4,-5l0 -37c0,-3 -2,-5 -4,-5 -3,0 -4,2 -4,5zm33 54l0 -70 19 0c6,0 11,0 15,1 4,0 7,2 9,4 2,3 4,7 4,12 0,10 -5,15 -13,15l0 1c3,0 6,1 8,2 2,2 3,4 4,6 0,2 1,5 1,9 0,5 -1,8 -2,11 -1,3 -3,5 -5,6 -2,1 -5,2 -8,2 -3,0 -8,1 -13,1l-19 0zm19 -32l0 22c3,0 5,-1 6,-2 2,-1 2,-2 3,-4 0,-1 0,-3 0,-6 0,-3 0,-5 -1,-6 0,-2 -1,-3 -2,-3 -2,-1 -4,-1 -6,-1zm0 -28l0 18c2,0 4,0 5,0 1,-1 2,-1 3,-3 1,-1 1,-3 1,-6 0,-2 0,-4 0,-5 -1,-2 -2,-3 -3,-3 -1,-1 -3,-1 -6,-1zm79 8l0 34c0,4 -1,7 -3,10 -2,3 -5,5 -8,6 -4,2 -7,2 -12,2 -4,0 -8,0 -11,-2 -3,-1 -6,-3 -8,-6 -2,-3 -3,-6 -3,-10l0 -34c0,-6 2,-11 6,-14 4,-4 9,-5 16,-5 8,0 13,1 17,5 4,3 6,8 6,14zm-27 -2l0 37c0,3 2,5 4,5 3,0 4,-2 4,-5l0 -37c0,-3 -1,-5 -4,-5 -2,0 -4,2 -4,5zm33 22l0 -15 26 0 0 15 -26 0zm62 -55l20 0 0 87 -20 0 0 -39c-6,4 -11,6 -15,6 -1,0 -2,0 -2,-1 -3,0 -6,-2 -7,-4 -2,-2 -3,-4 -4,-7 -1,-2 -1,-5 -2,-8 0,-3 0,-6 0,-9l0 -25 20 0c0,0 0,9 0,27 0,4 0,7 1,9 0,1 2,2 4,2 1,0 3,0 5,-1l0 -37zm73 54l-27 0 0 14c0,4 1,6 4,6 1,0 2,0 3,-1 1,-1 1,-3 1,-5l0 -7 19 0 0 8c0,7 -2,11 -6,14 -5,3 -10,4 -17,4 -4,0 -8,0 -11,-2 -4,-1 -7,-3 -9,-6 -2,-3 -3,-6 -3,-10l0 -34c0,-6 2,-11 6,-14 4,-4 10,-5 17,-5 4,0 8,0 11,2 4,1 7,3 9,6 2,3 3,7 3,11l0 19zm-27 -12l8 0 0 -9c0,-3 -1,-5 -4,-5 -3,0 -4,2 -4,5l0 9zm80 -25l0 70 -18 0 0 -58 -10 0 0 58 -18 0 0 -70 46 0zm52 37l-27 0 0 14c0,4 2,6 4,6 2,0 3,0 3,-1 1,-1 1,-3 1,-5l0 -7 19 0 0 8c0,7 -2,11 -6,14 -4,3 -10,4 -17,4 -4,0 -8,0 -11,-2 -4,-1 -6,-3 -8,-6 -2,-3 -3,-6 -3,-10l0 -34c0,-6 2,-11 5,-14 4,-4 10,-5 17,-5 5,0 8,0 12,2 3,1 6,3 8,6 2,3 3,7 3,11l0 19zm-27 -12l8 0 0 -9c0,-3 -1,-5 -4,-5 -2,0 -4,2 -4,5l0 9zm34 45l0 -70 19 0 0 58 9 0 0 -58 19 0 0 58 9 0 0 23 -15 0 0 -11 -41 0zm81 0l-19 0 0 -70 19 0 0 32 0 0 11 -32 18 0 -12 31 12 39 -18 0 -11 -36 0 0 0 36zm60 0l0 -9 0 0c-1,3 -3,6 -5,7 -2,2 -5,2 -8,2 -4,0 -8,-1 -10,-3 -2,-3 -3,-6 -3,-11l0 -10c0,-4 1,-8 3,-10 2,-2 6,-5 10,-7 5,-2 8,-4 10,-6 2,-1 3,-4 3,-6 0,-4 -1,-6 -4,-6 -2,0 -4,2 -4,6l0 6 -18 0 0 -5c0,-7 2,-12 6,-15 5,-3 10,-4 16,-4 7,0 12,1 16,4 5,3 7,8 7,15l0 52 -19 0zm-8 -26l0 8c0,1 1,2 1,2 1,1 2,1 3,1 2,0 3,0 3,-2 1,-1 1,-3 1,-7l0 -12c-1,1 -2,2 -4,3 -1,1 -2,2 -3,3 0,1 -1,2 -1,4zm63 26l0 -32 -3 0c-2,0 -4,1 -5,2 -1,1 -2,3 -2,5l0 15c0,4 -1,7 -3,10l-18 0c2,-3 3,-6 3,-10l0 -15c0,-4 1,-8 3,-10 2,-2 6,-3 11,-3l0 0c-10,-1 -14,-7 -14,-16 0,-5 1,-8 3,-10 2,-3 5,-4 9,-5 4,-1 9,-1 15,-1l19 0 0 70 -18 0zm0 -60c-3,0 -5,0 -7,1 -1,0 -2,1 -2,2 -1,2 -1,4 -1,6 0,2 0,4 1,5 0,1 1,2 2,3 2,0 4,1 7,1l0 -18z"/>
  </g>
 </g>
</svg>
