<?xml version="1.0" encoding="UTF-8"?>
<!DOCTYPE svg PUBLIC "-//W3C//DTD SVG 1.1//EN" "http://www.w3.org/Graphics/SVG/1.1/DTD/svg11.dtd">
<!-- Creator: CorelDRAW X8 -->
<svg xmlns="http://www.w3.org/2000/svg" xml:space="preserve" width="956px" height="148px" version="1.1" style="shape-rendering:geometricPrecision; text-rendering:geometricPrecision; image-rendering:optimizeQuality; fill-rule:evenodd; clip-rule:evenodd"
viewBox="0 0 838 130"
 xmlns:xlink="http://www.w3.org/1999/xlink">
 <defs>
  <style type="text/css">
   <![CDATA[
    .fil0 {fill:#0C6835}
    .fil2 {fill:#0A6631;fill-rule:nonzero}
    .fil1 {fill:#0084D5;fill-rule:nonzero}
   ]]>
  </style>
 </defs>
 <g id="Слой_x0020_1">
  <metadata id="CorelCorpID_0Corel-Layer"/>
  <path class="fil0" d="M65 130c36,0 65,-29 65,-65 0,-36 -29,-65 -65,-65 -36,0 -65,29 -65,65 0,36 29,65 65,65zm-37 -96l37 -22 37 22 0 31 5 -3 0 28 -38 21 0 6 -9 0 0 -7 -37 -21 0 -27 5 3 0 -31zm9 5l28 -16 28 16 0 31 -28 16 -28 -15 0 -32zm61 39l-28 17 0 5 28 -16 0 -6zm-66 0l28 17 0 5 -28 -16 0 -6z"/>
  <polygon class="fil1" points="175,99 183,99 183,81 197,66 224,99 233,99 203,60 232,31 222,31 183,71 183,31 175,31 "/>
  <path id="1" class="fil1" d="M272 100c12,0 20,-4 27,-11l-5 -6c-7,6 -13,10 -22,10 -15,0 -27,-12 -27,-28 0,-16 12,-28 27,-28 9,0 15,3 21,9l5 -6c-7,-6 -14,-11 -26,-11 -20,0 -35,16 -35,36 0,20 15,35 35,35z"/>
  <path id="2" class="fil1" d="M342 100c12,0 20,-4 27,-11l-5 -6c-7,6 -13,10 -22,10 -15,0 -27,-12 -27,-28 0,-16 12,-28 27,-28 9,0 16,3 21,9l5 -6c-6,-6 -14,-11 -26,-11 -20,0 -35,16 -35,36 0,20 15,35 35,35z"/>
  <path id="3" class="fil1" d="M412 100c12,0 20,-4 27,-11l-5 -6c-6,6 -13,10 -22,10 -15,0 -26,-12 -26,-28 0,-16 11,-28 26,-28 9,0 16,3 22,9l5 -6c-7,-6 -14,-11 -27,-11 -20,0 -34,16 -34,36 0,20 14,35 34,35z"/>
  <path id="4" class="fil2" d="M514 100c11,0 21,-5 27,-10l0 -28 -28 0 0 7 21 0 0 17c-5,4 -12,7 -20,7 -17,0 -27,-12 -27,-28 0,-16 11,-28 26,-28 10,0 15,3 21,7l5 -5c-7,-6 -14,-10 -26,-10 -20,0 -34,17 -34,36 0,20 13,35 35,35z"/>
  <path id="5" class="fil2" d="M559 99l7 0 0 -27 20 0 20 27 9 0 -21 -28c11,-2 19,-9 19,-20 0,-5 -2,-10 -6,-14 -4,-4 -11,-6 -19,-6l-29 0 0 68zm7 -34l0 -27 21 0c11,0 18,5 18,13 0,9 -7,14 -18,14l-21 0z"/>
  <path id="6" class="fil2" d="M661 100c21,0 35,-16 35,-35 0,-19 -14,-36 -35,-36 -21,0 -35,17 -35,36 0,19 14,35 35,35zm0 -7c-15,0 -27,-13 -27,-28 0,-16 11,-28 27,-28 16,0 27,12 27,28 0,16 -11,28 -27,28z"/>
  <path id="7" class="fil2" d="M740 100c17,0 28,-10 28,-30l0 -39 -8 0 0 39c0,15 -8,23 -20,23 -13,0 -21,-8 -21,-23l0 -39 -8 0 0 39c0,20 12,30 29,30z"/>
  <path id="8" class="fil2" d="M786 99l8 0 0 -24 17 0c14,0 27,-8 27,-23 0,-13 -11,-21 -26,-21l-26 0 0 68zm8 -31l0 -30 17 0c11,0 19,5 19,15 0,9 -8,15 -19,15l-17 0z"/>
 </g>
</svg>
