<?xml version="1.0" encoding="utf-8"?>
<!-- Generator: Adobe Illustrator 16.0.4, SVG Export Plug-In . SVG Version: 6.00 Build 0)  -->
<!DOCTYPE svg PUBLIC "-//W3C//DTD SVG 1.0//EN" "http://www.w3.org/TR/2001/REC-SVG-20010904/DTD/svg10.dtd">
<svg version="1.0" id="Layer_1" xmlns="http://www.w3.org/2000/svg" xmlns:xlink="http://www.w3.org/1999/xlink" x="0px" y="0px"
	 width="22px" height="17px" viewBox="0 0 22 17" enable-background="new 0 0 22 17" xml:space="preserve">
<g>
	<path fill-rule="evenodd" clip-rule="evenodd" fill="#333333" d="M1.206,17c0.686-0.402,1.549-0.915,2.578-1.548
		c1.028-0.624,1.996-1.387,2.909-2.282c0.894-0.884,1.664-1.879,2.288-3.005c0.613-1.136,0.923-2.363,0.923-3.72
		c0-1.93-0.383-3.489-1.173-4.666C7.96,0.583,6.651,0,4.833,0C3.679,0,2.774,0.383,2.099,1.146C1.445,1.911,1.102,2.745,1.102,3.639
		c0,1.247,0.363,2.192,1.08,2.834C2.91,7.108,3.907,7.44,5.143,7.44h1.456c-0.135,1.076-0.353,1.959-0.686,2.633
		c-0.311,0.664-0.79,1.337-1.423,2.001c-0.656,0.664-1.309,1.186-1.965,1.588C1.892,14.064,1.049,14.558,0,15.12L1.206,17z
		 M13.302,17c0.686-0.402,1.549-0.915,2.577-1.548c1.039-0.624,1.995-1.387,2.911-2.282c0.893-0.884,1.662-1.879,2.285-3.005
		C21.688,9.028,22,7.801,22,6.444c0-1.93-0.374-3.489-1.164-4.666C20.057,0.583,18.748,0,16.929,0c-1.154,0-2.057,0.383-2.733,1.146
		c-0.656,0.764-0.999,1.599-0.999,2.493c0,1.247,0.364,2.192,1.092,2.834c0.717,0.634,1.715,0.966,2.951,0.966h1.465
		c-0.146,1.076-0.363,1.959-0.696,2.653c-0.323,0.685-0.8,1.348-1.424,1.98c-0.655,0.664-1.311,1.186-1.954,1.588
		c-0.645,0.402-1.486,0.896-2.535,1.458L13.302,17z"/>
</g>
</svg>
